<?xml version="1.0" encoding="UTF-8"?>
<!DOCTYPE svg PUBLIC "-//W3C//DTD SVG 1.1//EN" "http://www.w3.org/Graphics/SVG/1.1/DTD/svg11.dtd">
<!-- Creator: CorelDRAW X8 -->
<svg xmlns="http://www.w3.org/2000/svg" xml:space="preserve" width="270.933mm" height="203.2mm" version="1.1" style="shape-rendering:geometricPrecision; text-rendering:geometricPrecision; image-rendering:optimizeQuality; fill-rule:evenodd; clip-rule:evenodd"
viewBox="0 0 27093 20320"
 xmlns:xlink="http://www.w3.org/1999/xlink">
 <defs>
  <style type="text/css">
   <![CDATA[
    .fil1 {fill:#FFCD10}
    .fil0 {fill:white}
    .fil2 {fill:#FFCD10;fill-rule:nonzero}
    .fil3 {fill:white;fill-rule:nonzero}
   ]]>
  </style>
 </defs>
 <g id="Capa_x0020_1">
  <metadata id="CorelCorpID_0Corel-Layer"/>
  <g id="_75751456">
   <rect class="fil0" transform="matrix(0.162418 0.162418 -0.162418 0.162418 13607.6 6679.3)" width="6887" height="6887"/>
   <polygon class="fil1" points="12287,3539 13503,4754 12847,5410 12287,4851 9340,7798 12287,10745 15234,7798 12951,5514 13607,4858 16546,7798 12287,12057 8028,7798 "/>
   <polygon class="fil1" points="14928,3539 19188,7798 14928,12057 13710,10839 14366,10183 14928,10745 17876,7798 14928,4851 11981,7798 14262,10079 13606,10735 10669,7798 "/>
  </g>
  <path class="fil2" d="M4454 14781l-587 0 -118 384 -439 0 626 -1797 452 0 625 1797 -438 0 -121 -384zm-498 -281l409 0 -199 -635 -10 0 -200 635z"/>
  <polygon id="1" class="fil2" points="6375,14419 5621,14419 5621,15165 5185,15165 5185,13368 6508,13368 6508,13648 5621,13648 5621,14139 6375,14139 "/>
  <path id="2" class="fil2" d="M7648 14781l-587 0 -119 384 -438 0 626 -1797 452 0 625 1797 -438 0 -121 -384zm-498 -281l409 0 -200 -635 -9 0 -200 635z"/>
  <polygon class="fil2" points="9306,15134 9053,15134 9053,13337 9306,13337 "/>
  <polygon id="1" class="fil2" points="11190,15134 10938,15134 10041,13744 10033,13747 10033,15134 9781,15134 9781,13337 10033,13337 10930,14724 10938,14721 10938,13337 11190,13337 "/>
  <path id="2" class="fil2" d="M13001 14895c-44,66 -121,126 -231,182 -109,55 -251,82 -425,82 -223,0 -407,-69 -553,-206 -145,-137 -218,-315 -218,-533l0 -369c0,-218 68,-396 204,-533 135,-138 310,-206 525,-206 213,0 381,50 503,151 122,102 184,232 187,392l-3 7 -241 0c-8,-104 -49,-190 -123,-257 -75,-67 -183,-101 -323,-101 -143,0 -258,51 -345,154 -87,102 -130,232 -130,390l0 372c0,159 48,290 146,392 97,104 221,155 371,155 105,0 192,-13 260,-40 67,-27 115,-58 144,-92l0 -406 -408 0 0 -192 660 0 0 658z"/>
  <polygon id="3" class="fil2" points="14544,14302 13690,14302 13690,14942 14674,14942 14674,15134 13438,15134 13438,13337 14660,13337 14660,13529 13690,13529 13690,14110 14544,14110 "/>
  <polygon id="4" class="fil2" points="16380,15134 16127,15134 15230,13744 15222,13747 15222,15134 14970,15134 14970,13337 15222,13337 16120,14724 16127,14721 16127,13337 16380,13337 "/>
  <polygon id="5" class="fil2" points="17107,15134 16853,15134 16853,13337 17107,13337 "/>
  <polygon id="6" class="fil2" points="18687,14302 17833,14302 17833,14942 18818,14942 18818,15134 17581,15134 17581,13337 18804,13337 18804,13529 17833,13529 17833,14110 18687,14110 "/>
  <path id="7" class="fil2" d="M19365 14355l0 779 -252 0 0 -1794 675 0c204,0 360,43 467,130 108,87 162,214 162,380 0,92 -25,172 -75,240 -50,68 -123,122 -219,163 103,32 177,84 221,156 45,72 67,161 67,267l0 169c0,56 7,106 20,151 12,44 35,80 66,108l0 30 -259 0c-34,-28 -55,-69 -65,-124 -9,-54 -14,-110 -14,-167l0 -164c0,-97 -29,-176 -88,-235 -59,-59 -138,-89 -237,-89l-469 0zm0 -192l398 0c142,0 245,-26 307,-77 63,-52 95,-131 95,-238 0,-100 -31,-178 -92,-233 -61,-56 -156,-83 -285,-83l-423 0 0 631z"/>
  <path id="8" class="fil2" d="M22261 14396c0,219 -70,401 -212,546 -141,145 -324,217 -549,217 -218,0 -395,-72 -531,-217 -136,-145 -204,-327 -204,-546l0 -320c0,-218 68,-400 204,-546 136,-145 313,-218 531,-218 225,0 408,72 549,218 142,144 212,327 212,546l0 320zm-252 -319c0,-164 -46,-299 -138,-403 -92,-105 -216,-158 -371,-158 -147,0 -264,53 -352,158 -87,104 -131,239 -131,403l0 320c0,165 44,300 131,405 88,105 205,157 352,157 156,0 280,-52 372,-156 91,-105 137,-240 137,-406l0 -320z"/>
  <path id="9" class="fil2" d="M23653 14681c0,-82 -32,-150 -96,-205 -64,-56 -178,-102 -341,-139 -197,-46 -351,-113 -461,-201 -111,-88 -166,-199 -166,-332 0,-141 59,-257 179,-351 119,-94 273,-141 462,-141 204,0 367,54 488,162 120,108 178,233 174,375l-2 8 -241 0c0,-105 -36,-191 -108,-256 -72,-65 -176,-97 -311,-97 -125,0 -222,27 -288,82 -67,54 -101,126 -101,214 0,77 36,142 109,195 72,52 190,98 353,137 197,47 346,116 448,207 103,91 154,204 154,339 0,145 -62,261 -184,349 -123,88 -284,132 -482,132 -186,0 -350,-49 -493,-146 -143,-98 -212,-229 -208,-391l3 -8 240 0c0,115 44,203 132,263 88,60 196,90 326,90 127,0 228,-26 302,-77 75,-51 112,-121 112,-209z"/>
  <polygon class="fil3" points="3728,16109 3311,16109 3311,16429 3791,16429 3791,16525 3188,16525 3188,15626 3784,15626 3784,15722 3311,15722 3311,16013 3728,16013 "/>
  <path id="1" class="fil3" d="M4305 16347c0,-27 -11,-49 -31,-66 -21,-17 -60,-32 -117,-45 -82,-17 -144,-41 -185,-72 -42,-30 -62,-71 -62,-123 0,-54 23,-101 70,-139 46,-38 107,-57 182,-57 78,0 141,20 187,60 47,40 69,88 67,145l-1 4 -118 0c0,-29 -12,-55 -37,-78 -25,-24 -57,-35 -98,-35 -44,0 -76,9 -97,28 -22,19 -32,42 -32,69 0,26 9,47 28,62 18,15 57,28 114,40 85,18 149,43 190,74 42,31 63,73 63,125 0,59 -25,107 -73,143 -48,37 -112,55 -190,55 -86,0 -154,-21 -204,-64 -49,-44 -72,-94 -70,-151l1 -4 118 0c2,43 18,74 48,94 31,19 66,29 107,29 44,0 78,-8 103,-26 24,-17 37,-40 37,-68z"/>
  <path id="2" class="fil3" d="M5156 16216c0,96 -23,174 -70,233 -47,59 -111,88 -193,88 -41,0 -78,-6 -109,-20 -32,-14 -58,-35 -80,-62l0 326 -123 0 0 -924 94 0 19 87c22,-32 50,-57 83,-74 32,-17 71,-25 114,-25 84,0 149,33 195,98 47,66 70,153 70,260l0 13zm-123 -13c0,-76 -15,-138 -45,-187 -30,-48 -75,-73 -133,-73 -36,0 -66,8 -91,24 -25,16 -45,38 -60,65l0 322c15,28 35,49 60,64 25,16 56,23 92,23 58,0 102,-21 132,-63 30,-42 45,-96 45,-162l0 -13z"/>
  <path id="3" class="fil3" d="M5587 16537c-94,0 -169,-31 -224,-92 -56,-62 -84,-143 -84,-241l0 -27c0,-95 29,-174 86,-238 57,-63 125,-94 203,-94 91,0 160,27 207,81 47,55 70,127 70,217l0 76 -438 0 -2 3c1,64 18,116 49,158 32,41 76,61 133,61 42,0 78,-5 110,-17 31,-12 58,-28 81,-49l48 79c-24,24 -56,44 -95,60 -40,15 -88,23 -144,23zm-19 -596c-41,0 -76,17 -105,51 -29,34 -47,77 -54,128l1 3 312 0 0 -16c0,-47 -13,-87 -39,-118 -26,-32 -64,-48 -115,-48z"/>
  <path id="4" class="fil3" d="M6257 16441c41,0 77,-12 108,-37 31,-25 46,-55 46,-92l111 0 1 4c2,58 -24,109 -78,154 -54,45 -116,67 -188,67 -98,0 -173,-31 -225,-95 -52,-63 -78,-142 -78,-238l0 -26c0,-95 26,-174 78,-238 53,-63 128,-95 225,-95 79,0 144,23 194,69 50,46 74,103 73,170l-2 4 -111 0c0,-41 -14,-76 -43,-104 -29,-29 -66,-43 -111,-43 -64,0 -110,23 -138,68 -28,46 -41,102 -41,169l0 25c0,68 13,125 41,170 27,46 73,68 138,68z"/>
  <path id="5" class="fil3" d="M6794 16525l-123 0 0 -668 123 0 0 668zm0 -838l-123 0 0 -127 123 0 0 127z"/>
  <path id="6" class="fil3" d="M7398 16525c-4,-20 -7,-38 -10,-53 -2,-16 -3,-31 -4,-47 -23,32 -52,59 -89,80 -37,22 -77,32 -119,32 -70,0 -124,-17 -161,-53 -37,-36 -55,-85 -55,-147 0,-64 26,-114 78,-150 53,-36 123,-54 213,-54l133 0 0 -66c0,-38 -12,-69 -36,-92 -24,-23 -58,-34 -102,-34 -40,0 -72,10 -96,30 -25,19 -38,43 -38,71l-117 0 -1 -4c-3,-48 20,-93 69,-133 49,-40 112,-60 190,-60 76,0 138,19 184,58 47,38 70,94 70,166l0 321c0,24 2,47 4,69 3,23 7,44 14,66l-127 0zm-204 -90c45,0 85,-11 121,-34 35,-22 59,-48 69,-77l0 -109 -138 0c-49,0 -89,12 -118,37 -30,25 -45,54 -45,87 0,30 9,53 28,70 19,17 46,26 83,26z"/>
  <polygon id="7" class="fil3" points="7819,16525 7696,16525 7696,15562 7819,15562 "/>
  <path id="8" class="fil3" d="M8141 16525l-123 0 0 -668 123 0 0 668zm0 -838l-123 0 0 -127 123 0 0 127z"/>
  <path id="9" class="fil3" d="M8722 16347c0,-27 -10,-49 -30,-66 -21,-17 -60,-32 -118,-45 -81,-17 -143,-41 -184,-72 -42,-30 -63,-71 -63,-123 0,-54 24,-101 70,-139 47,-38 108,-57 183,-57 78,0 141,20 187,60 46,40 69,88 66,145l-1 4 -117 0c0,-29 -13,-55 -37,-78 -25,-24 -58,-35 -98,-35 -44,0 -77,9 -98,28 -21,19 -32,42 -32,69 0,26 10,47 28,62 19,15 57,28 115,40 85,18 148,43 190,74 41,31 62,73 62,125 0,59 -24,107 -72,143 -49,37 -112,55 -190,55 -87,0 -154,-21 -204,-64 -49,-44 -73,-94 -70,-151l1 -4 117 0c2,43 19,74 49,94 30,19 66,29 107,29 43,0 77,-8 102,-26 25,-17 37,-40 37,-68z"/>
  <path id="10" class="fil3" d="M9161 15696l0 161 127 0 0 90 -127 0 0 403c0,32 6,53 19,66 13,13 31,19 52,19 7,0 15,-1 24,-2 8,-2 16,-4 22,-7l17 86c-9,7 -23,13 -41,18 -17,5 -35,7 -53,7 -50,0 -90,-15 -119,-44 -30,-30 -44,-77 -44,-140l0 -406 -108 0 0 -90 108 0 0 -161 123 0z"/>
  <path id="11" class="fil3" d="M9855 16525c-4,-20 -7,-38 -10,-53 -2,-16 -3,-31 -4,-47 -23,32 -53,59 -89,80 -37,22 -77,32 -119,32 -71,0 -124,-17 -161,-53 -37,-36 -55,-85 -55,-147 0,-64 26,-114 78,-150 52,-36 123,-54 213,-54l133 0 0 -66c0,-38 -12,-69 -36,-92 -24,-23 -58,-34 -102,-34 -40,0 -72,10 -97,30 -24,19 -37,43 -37,71l-117 0 -1 -4c-3,-48 20,-93 69,-133 49,-40 112,-60 190,-60 76,0 138,19 184,58 47,38 70,94 70,166l0 321c0,24 1,47 4,69 2,23 7,44 14,66l-127 0zm-204 -90c44,0 85,-11 120,-34 36,-22 59,-48 70,-77l0 -109 -138 0c-49,0 -89,12 -119,37 -29,25 -44,54 -44,87 0,30 9,53 28,70 19,17 46,26 83,26z"/>
  <path id="12" class="fil3" d="M10535 16347c0,-27 -10,-49 -31,-66 -20,-17 -59,-32 -117,-45 -82,-17 -143,-41 -185,-72 -41,-30 -62,-71 -62,-123 0,-54 24,-101 70,-139 47,-38 107,-57 182,-57 79,0 141,20 188,60 46,40 68,88 66,145l-1 4 -117 0c0,-29 -13,-55 -38,-78 -24,-24 -57,-35 -98,-35 -43,0 -76,9 -97,28 -21,19 -32,42 -32,69 0,26 9,47 28,62 19,15 57,28 114,40 86,18 149,43 191,74 41,31 62,73 62,125 0,59 -24,107 -73,143 -48,37 -111,55 -190,55 -86,0 -154,-21 -203,-64 -50,-44 -73,-94 -71,-151l2 -4 117 0c2,43 18,74 49,94 30,19 66,29 106,29 44,0 78,-8 103,-26 25,-17 37,-40 37,-68z"/>
  <path id="13" class="fil3" d="M11409 16537c-94,0 -169,-31 -225,-92 -55,-62 -83,-143 -83,-241l0 -27c0,-95 29,-174 86,-238 57,-63 125,-94 203,-94 91,0 160,27 207,81 46,55 69,127 69,217l0 76 -438 0 -1 3c1,64 17,116 49,158 31,41 76,61 133,61 41,0 78,-5 109,-17 32,-12 59,-28 82,-49l48 79c-24,24 -56,44 -96,60 -39,15 -87,23 -143,23zm-19 -596c-41,0 -76,17 -106,51 -28,34 -46,77 -53,128l1 3 311 0 0 -16c0,-47 -12,-87 -38,-118 -26,-32 -64,-48 -115,-48z"/>
  <path id="14" class="fil3" d="M11914 15857l9 100c22,-35 51,-63 85,-83 33,-19 72,-29 115,-29 73,0 129,21 169,63 40,42 60,107 60,195l0 422 -123 0 0 -419c0,-59 -11,-101 -35,-125 -23,-25 -59,-38 -108,-38 -35,0 -66,9 -94,26 -27,17 -49,40 -65,69l0 487 -123 0 0 -668 110 0z"/>
  <polygon id="15" class="fil3" points="13029,15626 13318,16356 13322,16356 13611,15626 13769,15626 13769,16525 13646,16525 13646,16169 13658,15804 13655,15803 13361,16525 13279,16525 12986,15805 12982,15806 12994,16169 12994,16525 12871,16525 12871,15626 "/>
  <path id="16" class="fil3" d="M14386 16525c-4,-20 -7,-38 -10,-53 -2,-16 -3,-31 -4,-47 -23,32 -53,59 -89,80 -37,22 -77,32 -119,32 -71,0 -124,-17 -161,-53 -37,-36 -55,-85 -55,-147 0,-64 26,-114 78,-150 52,-36 123,-54 213,-54l133 0 0 -66c0,-38 -12,-69 -36,-92 -24,-23 -58,-34 -102,-34 -40,0 -72,10 -97,30 -24,19 -37,43 -37,71l-117 0 -1 -4c-3,-48 20,-93 69,-133 49,-40 112,-60 190,-60 76,0 138,19 184,58 47,38 70,94 70,166l0 321c0,24 1,47 4,69 2,23 7,44 14,66l-127 0zm-204 -90c44,0 85,-11 120,-34 36,-22 59,-48 70,-77l0 -109 -138 0c-49,0 -89,12 -119,37 -29,25 -44,54 -44,87 0,30 9,53 28,70 18,17 46,26 83,26z"/>
  <path id="17" class="fil3" d="M14645 16203c0,-107 24,-194 70,-260 47,-65 112,-98 195,-98 41,0 78,8 109,23 31,16 57,38 79,68l18 -79 94 0 0 924 -123 0 0 -319c-22,25 -47,44 -77,56 -30,13 -63,19 -101,19 -82,0 -147,-29 -194,-88 -46,-59 -70,-137 -70,-233l0 -13zm123 13c0,67 14,121 43,163 28,42 71,62 129,62 34,0 62,-7 87,-22 23,-14 43,-35 60,-62l0 -336c-17,-24 -37,-44 -60,-59 -25,-14 -53,-21 -86,-21 -58,0 -102,24 -130,73 -28,49 -43,112 -43,189l0 13z"/>
  <path id="18" class="fil3" d="M15829 16426c-22,36 -49,63 -82,83 -33,19 -72,28 -116,28 -73,0 -131,-23 -172,-69 -41,-47 -62,-119 -62,-217l0 -394 123 0 0 395c0,71 11,120 32,147 21,27 54,40 99,40 44,0 80,-9 109,-26 28,-18 50,-43 64,-75l0 -481 123 0 0 668 -110 0 -8 -99z"/>
  <path id="19" class="fil3" d="M16259 16525l-123 0 0 -668 123 0 0 668zm0 -838l-123 0 0 -127 123 0 0 127z"/>
  <path id="20" class="fil3" d="M16558 15857l9 100c22,-35 50,-63 84,-83 34,-19 73,-29 116,-29 73,0 129,21 169,63 40,42 60,107 60,195l0 422 -123 0 0 -419c0,-59 -12,-101 -35,-125 -24,-25 -59,-38 -108,-38 -35,0 -66,9 -94,26 -27,17 -49,40 -65,69l0 487 -123 0 0 -668 110 0z"/>
  <path id="21" class="fil3" d="M17589 16525c-4,-20 -7,-38 -9,-53 -2,-16 -4,-31 -4,-47 -23,32 -53,59 -90,80 -37,22 -76,32 -119,32 -70,0 -123,-17 -160,-53 -37,-36 -55,-85 -55,-147 0,-64 26,-114 78,-150 52,-36 123,-54 212,-54l134 0 0 -66c0,-38 -12,-69 -36,-92 -24,-23 -59,-34 -103,-34 -39,0 -71,10 -96,30 -25,19 -37,43 -37,71l-118 0 -1 -4c-2,-48 21,-93 70,-133 49,-40 112,-60 189,-60 77,0 138,19 185,58 46,38 70,94 70,166l0 321c0,24 1,47 3,69 3,23 8,44 14,66l-127 0zm-204 -90c45,0 85,-11 121,-34 36,-22 59,-48 70,-77l0 -109 -138 0c-50,0 -89,12 -119,37 -30,25 -45,54 -45,87 0,30 10,53 29,70 18,17 46,26 82,26z"/>
  <path id="22" class="fil3" d="M18197 15965l-63 -4c-33,0 -60,8 -82,23 -23,15 -40,37 -52,64l0 477 -123 0 0 -668 110 0 12 98c19,-35 43,-61 71,-81 28,-19 60,-29 97,-29 9,0 18,0 26,2 8,1 15,3 20,5l-16 113z"/>
  <path id="23" class="fil3" d="M18448 16525l-123 0 0 -668 123 0 0 668zm0 -838l-123 0 0 -127 123 0 0 127z"/>
  <path id="24" class="fil3" d="M19052 16525c-4,-20 -7,-38 -9,-53 -3,-16 -4,-31 -4,-47 -23,32 -53,59 -90,80 -37,22 -77,32 -119,32 -70,0 -124,-17 -160,-53 -37,-36 -56,-85 -56,-147 0,-64 26,-114 79,-150 52,-36 123,-54 212,-54l134 0 0 -66c0,-38 -13,-69 -37,-92 -24,-23 -58,-34 -102,-34 -39,0 -72,10 -96,30 -25,19 -38,43 -38,71l-117 0 -1 -4c-3,-48 21,-93 69,-133 49,-40 112,-60 190,-60 76,0 138,19 185,58 46,38 70,94 70,166l0 321c0,24 1,47 3,69 3,23 7,44 14,66l-127 0zm-204 -90c45,0 85,-11 121,-34 36,-22 59,-48 70,-77l0 -109 -138 0c-50,0 -89,12 -119,37 -30,25 -45,54 -45,87 0,30 10,53 28,70 19,17 47,26 83,26z"/>
  <path id="25" class="fil3" d="M19803 16165l0 360 -122 0 0 -899 347 0c97,0 172,25 226,74 54,50 81,115 81,195 0,82 -27,148 -81,197 -54,48 -129,73 -226,73l-225 0zm0 -96l225 0c62,0 108,-17 138,-49 30,-33 46,-74 46,-124 0,-49 -16,-91 -46,-124 -31,-33 -77,-50 -138,-50l-225 0 0 347z"/>
  <path id="26" class="fil3" d="M20748 16537c-94,0 -168,-31 -224,-92 -56,-62 -83,-143 -83,-241l0 -27c0,-95 28,-174 86,-238 57,-63 124,-94 203,-94 91,0 160,27 206,81 47,55 70,127 70,217l0 76 -438 0 -2 3c1,64 18,116 49,158 32,41 76,61 133,61 42,0 78,-5 110,-17 31,-12 58,-28 81,-49l48 79c-24,24 -56,44 -95,60 -40,15 -87,23 -144,23zm-18 -596c-42,0 -77,17 -106,51 -29,34 -47,77 -54,128l2 3 311 0 0 -16c0,-47 -13,-87 -38,-118 -26,-32 -65,-48 -115,-48z"/>
  <path id="27" class="fil3" d="M21537 16347c0,-27 -11,-49 -31,-66 -21,-17 -60,-32 -117,-45 -82,-17 -144,-41 -185,-72 -42,-30 -63,-71 -63,-123 0,-54 24,-101 70,-139 47,-38 108,-57 183,-57 78,0 141,20 187,60 47,40 69,88 67,145l-2 4 -117 0c0,-29 -12,-55 -37,-78 -25,-24 -58,-35 -98,-35 -44,0 -77,9 -98,28 -21,19 -32,42 -32,69 0,26 10,47 28,62 19,15 57,28 115,40 85,18 149,43 190,74 42,31 62,73 62,125 0,59 -24,107 -72,143 -49,37 -112,55 -190,55 -86,0 -154,-21 -204,-64 -49,-44 -73,-94 -70,-151l1 -4 117 0c2,43 19,74 49,94 30,19 66,29 107,29 44,0 78,-8 102,-26 25,-17 38,-40 38,-68z"/>
  <path id="28" class="fil3" d="M22227 16525c-4,-20 -7,-38 -9,-53 -3,-16 -4,-31 -4,-47 -23,32 -53,59 -90,80 -37,22 -76,32 -119,32 -70,0 -124,-17 -160,-53 -37,-36 -56,-85 -56,-147 0,-64 26,-114 79,-150 52,-36 123,-54 212,-54l134 0 0 -66c0,-38 -12,-69 -37,-92 -24,-23 -58,-34 -102,-34 -39,0 -72,10 -96,30 -25,19 -38,43 -38,71l-117 0 -1 -4c-3,-48 21,-93 69,-133 49,-40 113,-60 190,-60 76,0 138,19 185,58 46,38 70,94 70,166l0 321c0,24 1,47 3,69 3,23 7,44 14,66l-127 0zm-204 -90c45,0 85,-11 121,-34 36,-22 59,-48 70,-77l0 -109 -138 0c-50,0 -89,12 -119,37 -30,25 -45,54 -45,87 0,30 10,53 28,70 19,17 47,26 83,26z"/>
  <path id="29" class="fil3" d="M22487 16203c0,-107 23,-194 70,-260 46,-65 111,-98 194,-98 40,0 75,7 106,22 30,14 56,35 78,62l0 -367 123 0 0 963 -101 0 -14 -82c-22,31 -49,55 -81,71 -32,15 -69,23 -112,23 -82,0 -147,-29 -193,-88 -47,-59 -70,-137 -70,-233l0 -13zm123 13c0,68 14,122 42,162 27,41 71,61 129,61 37,0 68,-8 93,-25 25,-16 45,-39 61,-69l0 -311c-16,-28 -36,-50 -61,-66 -26,-16 -56,-25 -91,-25 -59,0 -103,24 -131,73 -28,48 -42,110 -42,187l0 13z"/>
  <path id="30" class="fil3" d="M23656 16525c-4,-20 -7,-38 -9,-53 -3,-16 -4,-31 -4,-47 -23,32 -53,59 -90,80 -37,22 -77,32 -119,32 -70,0 -124,-17 -160,-53 -37,-36 -56,-85 -56,-147 0,-64 26,-114 79,-150 52,-36 123,-54 212,-54l134 0 0 -66c0,-38 -13,-69 -37,-92 -24,-23 -58,-34 -102,-34 -39,0 -72,10 -96,30 -25,19 -38,43 -38,71l-117 0 -1 -4c-3,-48 21,-93 69,-133 49,-40 112,-60 190,-60 76,0 138,19 185,58 46,38 70,94 70,166l0 321c0,24 1,47 3,69 3,23 7,44 14,66l-127 0zm-204 -90c45,0 85,-11 121,-34 36,-22 59,-48 70,-77l0 -109 -138 0c-50,0 -89,12 -119,37 -30,25 -45,54 -45,87 0,30 10,53 28,70 19,17 47,26 83,26z"/>
 </g>
</svg>
